

<!-- Animated using SVGANIMA - https://svganima.com -->
<svg version="1.0" xmlns="http://www.w3.org/2000/svg" width="390pt" height="500pt" viewBox="0 -20 390 500" preserveAspectRatio="xMidYMid" id="svg1722">

<defs id="defs7486"></defs><g transform="translate(0.000000,480.000000) scale(0.100000,-0.100000)" fill="#000000" stroke="none" id="g9996">
<path d="M 1425 4764 C 1381 4757 1308 4747 1262 4742 C 1165 4731 1130 4711 960 4570 C 902 4522 828 4466 795 4445 C 662 4361 577 4263 545 4159 C 537 4131 515 4091 496 4068 C 475 4044 443 3981 415 3911 C 390 3847 354 3772 336 3744 C 249 3612 223 3501 249 3365 C 255 3329 252 3320 219 3275 C 115 3133 60 2929 60 2678 C 60 2556 84 2373 111 2285 L 131 2218 L 91 2157 C 26 2056 16 2026 16 1925 C 17 1735 76 1495 167 1318 C 241 1173 345 1078 472 1036 C 486 1032 490 1019 490 981 C 490 916 525 820 577 745 C 653 634 792 491 873 441 C 893 429 921 397 938 367 C 1010 239 1184 122 1354 84 C 1398 75 1448 57 1467 44 C 1535 -2 1614 1 1700 53 C 1766 93 1815 161 1831 238 C 1837 269 1857 324 1874 359 C 1899 413 1904 435 1904 494 C 1904 533 1898 581 1891 602 C 1881 634 1882 642 1900 672 C 1923 711 1926 760 1906 799 C 1893 823 1893 832 1907 871 C 1922 916 1922 978 1904 1236 C 1899 1312 1901 1340 1919 1401 C 1930 1442 1944 1491 1948 1510 L 1957 1545 L 1965 1501 C 1969 1476 1981 1431 1992 1401 C 2015 1338 2018 1221 2001 1105 C 1986 1003 1988 932 2009 870 C 2026 823 2027 813 2014 796 C 1994 767 1997 701 2019 664 C 2036 636 2036 629 2024 569 C 2004 477 2021 369 2064 320 C 2072 312 2081 285 2085 260 C 2109 106 2226 3 2366 12 C 2413 15 2436 22 2461 42 C 2480 56 2516 71 2540 75 C 2611 87 2717 126 2777 162 C 2851 207 2943 298 2980 364 C 3001 401 3027 429 3060 450 C 3122 490 3265 639 3330 732 C 3389 816 3419 892 3427 977 C 3430 1012 3437 1040 3442 1040 C 3466 1040 3562 1094 3604 1131 C 3760 1269 3888 1621 3893 1925 C 3894 2026 3879 2071 3813 2167 L 3777 2220 L 3798 2307 C 3828 2434 3840 2535 3840 2673 C 3840 2933 3786 3135 3679 3280 L 3645 3325 L 3648 3435 C 3652 3568 3633 3642 3570 3732 C 3547 3764 3512 3830 3493 3878 C 3443 4001 3416 4051 3381 4084 C 3364 4101 3350 4123 3350 4134 C 3350 4174 3292 4277 3239 4332 C 3209 4362 3147 4412 3100 4442 C 3053 4472 2961 4541 2895 4594 C 2755 4707 2695 4740 2631 4740 C 2605 4740 2558 4745 2525 4750 C 2270 4793 2154 4781 2076 4703 C 2017 4645 2004 4564 2035 4440 C 2060 4336 2066 4140 2046 4046 C 2022 3927 2030 3747 2066 3608 C 2079 3557 2079 3546 2065 3514 C 2035 3442 2049 3359 2102 3291 L 2121 3266 L 2078 3223 L 2035 3179 L 2035 3017 C 2035 2860 2036 2852 2062 2802 L 2089 2750 L 2065 2696 C 1972 2486 1937 2199 1986 2054 C 2000 2012 2000 2001 1986 1946 C 1978 1913 1968 1861 1964 1831 L 1957 1777 L 1933 1891 C 1904 2025 1905 2011 1925 2080 C 1966 2225 1923 2518 1834 2705 L 1811 2755 L 1838 2810 C 1862 2860 1865 2878 1868 2995 C 1873 3154 1862 3199 1815 3236 C 1796 3250 1780 3266 1780 3271 C 1780 3276 1795 3300 1813 3326 C 1841 3366 1845 3380 1845 3433 C 1844 3470 1838 3507 1828 3524 C 1815 3549 1814 3560 1826 3604 C 1860 3738 1869 3945 1845 4045 C 1826 4124 1827 4313 1846 4415 C 1880 4595 1874 4643 1809 4710 C 1743 4778 1614 4797 1425 4764 Z M 1717 4645 C 1760 4603 1762 4598 1758 4553 C 1753 4507 1731 4369 1724 4342 C 1722 4334 1707 4339 1679 4360 C 1624 4399 1615 4398 1645 4354 C 1681 4302 1711 4214 1721 4135 C 1726 4097 1735 4039 1741 4007 C 1753 3950 1748 3772 1734 3689 L 1728 3653 L 1636 3676 C 1586 3689 1543 3700 1540 3700 C 1537 3700 1571 3676 1615 3647 C 1684 3602 1695 3590 1701 3560 C 1704 3541 1714 3511 1723 3493 C 1748 3446 1744 3421 1705 3360 C 1654 3282 1657 3243 1715 3181 L 1760 3133 L 1760 3018 C 1760 2905 1748 2840 1728 2840 C 1718 2840 1519 2901 1512 2906 C 1510 2907 1500 2943 1489 2987 C 1478 3030 1449 3106 1424 3156 C 1372 3259 1372 3264 1419 3379 C 1458 3472 1463 3510 1445 3562 C 1415 3648 1427 3683 1534 3818 C 1570 3864 1600 3906 1600 3911 C 1600 3916 1559 3886 1509 3843 C 1418 3767 1360 3700 1360 3672 C 1360 3660 1351 3658 1318 3663 C 1294 3666 1266 3665 1255 3660 C 1236 3653 1236 3653 1257 3646 C 1287 3636 1360 3547 1360 3520 C 1360 3507 1341 3456 1318 3406 C 1257 3274 1259 3234 1329 3112 L 1383 3020 L 1365 2957 C 1343 2879 1338 2688 1358 2668 C 1369 2657 1370 2658 1365 2671 C 1356 2694 1381 2749 1420 2793 C 1449 2827 1457 2830 1504 2830 C 1551 2830 1564 2825 1629 2778 C 1695 2732 1706 2719 1736 2656 C 1796 2529 1854 2248 1836 2176 L 1829 2149 L 1797 2188 C 1760 2232 1711 2275 1660 2310 C 1565 2374 1544 2413 1574 2472 L 1588 2499 L 1548 2470 C 1495 2431 1453 2424 1393 2444 C 1325 2467 1249 2521 1160 2609 C 1014 2754 998 2836 1075 3034 C 1144 3211 1150 3319 1096 3447 C 1044 3572 1049 3608 1130 3695 C 1195 3765 1217 3803 1250 3905 C 1270 3967 1281 3983 1346 4045 C 1391 4088 1427 4134 1441 4163 C 1466 4219 1496 4232 1538 4204 C 1553 4195 1571 4179 1578 4171 C 1585 4162 1584 4169 1575 4188 C 1554 4230 1500 4258 1463 4244 C 1448 4239 1419 4213 1398 4186 C 1375 4154 1339 4124 1300 4102 C 1267 4083 1238 4069 1236 4071 C 1211 4106 1180 4176 1180 4200 C 1180 4218 1201 4271 1230 4326 C 1278 4417 1289 4460 1272 4487 C 1267 4495 1264 4486 1264 4465 C 1264 4442 1254 4417 1232 4388 C 1113 4231 1103 4199 1144 4102 C 1196 3978 1170 3871 1061 3762 C 1023 3725 988 3686 983 3676 C 972 3657 970 3657 920 3673 C 858 3693 804 3695 794 3678 C 790 3671 790 3668 795 3672 C 807 3683 869 3654 917 3614 C 952 3586 960 3572 960 3546 C 960 3528 974 3474 991 3424 C 1038 3291 1035 3239 976 3066 C 931 2936 928 2922 932 2851 C 936 2795 944 2761 964 2723 C 978 2694 987 2670 982 2670 C 964 2670 744 2802 728 2823 C 710 2846 705 2887 718 2906 C 722 2912 739 2924 755 2933 L 785 2949 L 755 2950 C 721 2950 600 2910 600 2898 C 600 2894 612 2884 628 2875 L 655 2859 L 620 2866 C 571 2874 485 2933 456 2978 C 414 3040 380 3145 380 3208 C 380 3274 397 3305 437 3313 C 452 3316 472 3321 481 3325 C 493 3330 499 3320 508 3278 C 523 3214 561 3130 583 3111 C 599 3099 599 3100 584 3136 C 571 3166 569 3198 572 3276 C 576 3362 580 3382 600 3410 C 627 3448 630 3485 610 3551 C 598 3591 599 3603 615 3654 C 625 3685 647 3732 663 3757 C 690 3798 707 3809 819 3862 C 939 3918 990 3952 990 3973 C 990 3979 982 3976 973 3968 C 948 3947 901 3933 790 3916 C 681 3899 678 3900 682 3975 L 685 4025 L 750 4048 C 882 4093 903 4103 938 4134 C 1000 4189 1014 4255 985 4375 C 972 4430 972 4436 988 4451 C 1070 4527 1200 4639 1216 4648 C 1234 4657 1282 4663 1322 4661 C 1343 4660 1387 4616 1462 4522 C 1525 4442 1534 4406 1503 4360 C 1489 4338 1490 4338 1518 4364 C 1563 4406 1562 4461 1515 4547 C 1496 4582 1480 4619 1480 4629 C 1480 4666 1531 4688 1619 4689 C 1670 4690 1675 4688 1717 4645 Z M 2372 4660 C 2387 4653 2401 4641 2404 4633 C 2407 4625 2393 4587 2372 4548 C 2323 4452 2321 4404 2368 4358 L 2402 4325 L 2380 4366 C 2354 4418 2361 4440 2436 4532 C 2508 4619 2542 4640 2611 4640 C 2671 4639 2676 4636 2824 4515 C 2910 4445 2910 4445 2905 4405 C 2883 4216 2886 4194 2950 4137 C 2986 4104 3007 4094 3140 4048 L 3205 4025 L 3208 3976 C 3213 3899 3216 3900 3088 3920 C 2965 3939 2944 3945 2918 3968 C 2906 3978 2900 3979 2900 3972 C 2900 3951 2977 3903 3080 3860 C 3196 3811 3235 3774 3270 3679 C 3293 3619 3293 3616 3274 3498 C 3269 3468 3273 3451 3294 3416 C 3328 3357 3340 3221 3316 3145 L 3301 3095 L 3324 3123 C 3345 3150 3381 3240 3395 3303 C 3400 3328 3405 3331 3425 3326 C 3502 3307 3520 3285 3520 3211 C 3520 3126 3453 2971 3398 2930 L 3368 2908 L 3299 2931 C 3245 2949 3228 2952 3218 2942 C 3209 2933 3209 2930 3220 2930 C 3235 2930 3280 2891 3280 2879 C 3280 2874 3260 2862 3235 2851 C 3211 2840 3170 2818 3146 2801 C 3091 2763 2916 2661 2912 2665 C 2911 2666 2922 2691 2937 2721 C 2962 2769 2965 2785 2965 2870 C 2964 2958 2961 2973 2921 3075 C 2862 3226 2858 3285 2899 3408 C 2916 3459 2930 3514 2930 3530 C 2930 3549 2941 3572 2961 3595 C 3000 3639 3075 3684 3096 3676 C 3104 3673 3108 3674 3105 3680 C 3095 3696 3024 3691 2971 3671 L 2922 3653 L 2890 3701 C 2873 3728 2855 3750 2851 3750 C 2847 3750 2825 3769 2802 3791 C 2721 3871 2699 3991 2745 4100 C 2759 4133 2770 4169 2770 4180 C 2770 4216 2742 4269 2679 4352 C 2628 4420 2619 4439 2622 4466 C 2624 4484 2622 4496 2618 4494 C 2614 4491 2610 4470 2610 4447 C 2610 4414 2621 4386 2656 4327 C 2716 4226 2721 4190 2683 4119 L 2654 4064 L 2592 4098 C 2557 4117 2517 4149 2503 4169 C 2464 4222 2439 4240 2404 4240 C 2370 4240 2326 4211 2309 4177 C 2299 4159 2302 4160 2328 4183 C 2351 4205 2365 4211 2391 4208 C 2421 4205 2428 4199 2454 4147 C 2474 4107 2501 4074 2539 4043 C 2608 3986 2608 3986 2655 3865 C 2688 3779 2701 3758 2752 3707 C 2842 3617 2849 3581 2798 3448 C 2771 3376 2767 3352 2767 3270 C 2766 3179 2769 3169 2818 3043 C 2883 2878 2886 2826 2839 2732 C 2804 2661 2668 2526 2574 2470 C 2524 2440 2507 2435 2455 2435 C 2403 2435 2388 2439 2356 2464 C 2323 2489 2319 2490 2330 2471 C 2336 2459 2340 2433 2338 2412 C 2335 2380 2327 2369 2275 2330 C 2242 2305 2182 2252 2141 2211 L 2067 2137 L 2072 2246 C 2078 2381 2118 2550 2169 2652 C 2200 2714 2215 2732 2270 2771 C 2322 2809 2345 2819 2388 2822 C 2438 2827 2442 2826 2480 2787 C 2505 2763 2525 2730 2534 2701 C 2547 2656 2547 2656 2553 2685 C 2563 2740 2554 2874 2535 2947 L 2517 3019 L 2566 3102 C 2612 3180 2615 3189 2615 3255 C 2615 3316 2610 3336 2573 3416 C 2549 3466 2530 3514 2530 3523 C 2530 3532 2557 3567 2590 3601 L 2650 3662 L 2595 3658 C 2543 3655 2541 3656 2526 3686 C 2504 3734 2459 3781 2368 3851 C 2276 3922 2277 3913 2375 3790 C 2466 3677 2466 3678 2444 3519 C 2439 3482 2445 3457 2474 3381 C 2494 3330 2510 3275 2510 3258 C 2510 3242 2492 3192 2470 3146 C 2448 3101 2423 3033 2414 2994 C 2405 2956 2396 2920 2395 2913 C 2393 2907 2343 2886 2283 2866 C 2142 2821 2146 2817 2142 2995 L 2138 3128 L 2178 3168 C 2240 3230 2243 3276 2190 3355 C 2151 3413 2148 3427 2167 3468 C 2175 3488 2186 3523 2189 3545 C 2194 3581 2202 3590 2268 3634 C 2308 3660 2339 3684 2338 3686 C 2336 3688 2299 3680 2255 3669 C 2212 3659 2173 3653 2169 3657 C 2155 3671 2138 3857 2143 3932 C 2158 4135 2191 4270 2245 4351 C 2276 4399 2268 4400 2210 4354 L 2165 4318 L 2162 4347 C 2160 4362 2150 4417 2139 4469 C 2121 4559 2121 4565 2137 4599 C 2147 4619 2171 4645 2190 4658 C 2220 4679 2234 4681 2285 4677 C 2318 4674 2357 4667 2372 4660 Z M 3137 4276 C 3192 4226 3233 4166 3244 4119 L 3250 4092 L 3212 4106 C 3192 4113 3163 4119 3149 4120 C 3099 4120 3024 4150 2995 4180 C 2969 4207 2965 4219 2965 4263 C 2965 4292 2969 4332 2973 4352 L 2981 4389 L 3032 4357 C 3060 4339 3108 4303 3137 4276 Z M 919 4318 C 931 4246 926 4215 896 4182 C 866 4148 850 4141 757 4121 C 712 4110 667 4099 657 4095 C 641 4088 640 4091 646 4116 C 657 4163 679 4200 729 4253 C 769 4296 882 4380 901 4380 C 905 4380 913 4352 919 4318 Z M 610 3932 C 610 3853 606 3832 569 3735 C 530 3633 528 3621 535 3557 C 540 3503 538 3483 526 3464 C 506 3434 445 3403 391 3394 L 350 3387 L 350 3452 C 350 3536 369 3596 419 3674 C 441 3708 478 3780 500 3834 C 544 3943 586 4020 600 4020 C 606 4020 610 3981 610 3932 Z M 3324 3983 C 3338 3962 3363 3910 3380 3867 C 3417 3772 3445 3715 3475 3675 C 3528 3604 3556 3503 3545 3429 L 3539 3393 L 3494 3401 C 3442 3411 3402 3430 3376 3459 C 3361 3476 3358 3494 3359 3564 C 3360 3641 3357 3657 3320 3749 C 3284 3839 3280 3860 3280 3935 C 3280 3984 3284 4020 3290 4020 C 3295 4020 3311 4003 3324 3983 Z M 319 3115 C 325 3088 348 3030 370 2988 C 392 2946 410 2898 410 2882 C 410 2852 384 2822 320 2780 C 279 2753 230 2709 230 2700 C 230 2696 254 2701 284 2711 C 365 2739 514 2770 564 2770 C 599 2770 621 2761 671 2728 C 710 2702 777 2671 843 2649 C 908 2627 945 2610 936 2607 C 921 2601 860 2514 860 2498 C 860 2494 883 2502 910 2516 C 938 2530 988 2547 1022 2554 L 1084 2566 L 1157 2514 C 1197 2485 1254 2450 1283 2436 C 1336 2412 1360 2381 1360 2340 C 1360 2328 1332 2302 1282 2267 C 1170 2188 1114 2100 1142 2044 C 1156 2015 1183 1998 1179 2021 C 1172 2053 1196 2079 1291 2145 C 1347 2183 1418 2242 1449 2277 C 1480 2312 1512 2340 1521 2340 C 1547 2340 1627 2281 1668 2232 C 1772 2108 1816 1978 1826 1770 C 1833 1632 1821 1511 1797 1461 C 1775 1417 1721 1426 1600 1495 C 1494 1555 1430 1572 1394 1551 C 1378 1542 1380 1541 1412 1540 C 1450 1540 1494 1512 1590 1427 C 1642 1381 1723 1340 1763 1340 C 1789 1340 1790 1338 1790 1283 C 1790 1251 1797 1170 1805 1102 C 1816 1009 1817 967 1809 929 C 1803 902 1797 880 1796 880 C 1794 880 1760 895 1719 914 C 1678 933 1575 973 1490 1003 C 1405 1033 1326 1061 1315 1064 C 1256 1085 1402 982 1547 900 C 1639 848 1727 794 1742 782 C 1780 750 1778 717 1738 687 C 1656 625 1604 617 1400 633 C 1315 640 1307 639 1324 626 C 1359 598 1504 549 1567 543 C 1602 540 1634 532 1640 525 C 1645 519 1653 489 1658 459 L 1666 405 L 1684 465 C 1694 498 1706 536 1710 550 C 1716 573 1765 608 1776 598 C 1778 595 1785 569 1791 539 C 1804 472 1790 408 1754 375 C 1736 358 1730 342 1730 309 C 1729 198 1627 97 1542 124 C 1511 134 1508 156 1530 220 C 1559 306 1557 374 1524 406 C 1504 427 1492 431 1462 427 C 1442 425 1376 427 1316 432 C 1257 437 1205 439 1203 436 C 1195 428 1312 373 1365 361 C 1393 355 1431 351 1450 352 L 1485 355 L 1485 270 L 1485 185 L 1453 182 C 1407 178 1275 215 1214 250 C 1149 288 1077 351 1050 396 C 1029 429 1029 433 1043 462 C 1052 481 1055 501 1051 510 C 1047 518 1035 563 1025 610 C 1015 657 1002 711 995 730 C 976 786 981 790 1083 790 C 1134 790 1230 795 1297 802 C 1392 811 1426 811 1446 801 C 1483 785 1473 808 1432 836 C 1391 864 1317 877 1136 890 C 968 901 920 917 857 978 C 816 1018 766 1091 756 1127 C 750 1144 758 1159 788 1192 C 841 1250 880 1309 880 1331 C 880 1349 878 1349 840 1329 C 765 1290 699 1317 643 1410 C 607 1469 609 1478 662 1489 L 695 1496 L 649 1517 C 624 1528 588 1556 569 1579 C 444 1734 421 1755 340 1796 C 303 1814 265 1824 217 1828 C 128 1834 115 1851 123 1945 C 128 2009 152 2063 210 2140 L 228 2164 L 260 2114 L 292 2065 L 286 2113 C 283 2140 262 2206 241 2260 C 136 2520 148 2933 267 3151 C 297 3207 298 3207 319 3115 Z M 3644 3128 C 3711 2991 3723 2923 3724 2680 C 3725 2440 3720 2409 3661 2255 C 3639 2200 3619 2133 3615 2105 L 3609 2055 L 3631 2095 C 3674 2174 3678 2175 3717 2117 C 3783 2019 3794 1980 3784 1887 L 3777 1828 L 3746 1835 C 3614 1863 3540 1857 3502 1817 C 3491 1805 3469 1764 3454 1725 C 3431 1668 3413 1642 3354 1585 C 3270 1503 3260 1486 3260 1426 C 3260 1374 3240 1347 3184 1324 C 3138 1305 3111 1306 3071 1331 C 3053 1342 3035 1349 3033 1346 C 3021 1335 3057 1273 3107 1217 C 3136 1184 3160 1151 3160 1143 C 3160 1115 3107 1027 3064 983 C 2998 917 2956 903 2800 890 C 2623 876 2545 863 2499 840 C 2440 809 2431 783 2486 799 C 2503 804 2556 804 2606 799 C 2655 794 2748 790 2814 790 L 2932 789 L 2927 757 C 2925 739 2910 676 2895 615 C 2864 488 2863 474 2885 450 C 2899 434 2898 429 2861 383 C 2808 315 2758 276 2675 234 C 2607 200 2455 161 2442 174 C 2439 178 2436 218 2435 263 L 2435 345 L 2507 351 C 2575 358 2710 407 2710 426 C 2710 433 2437 422 2409 414 C 2365 401 2359 285 2398 196 C 2417 154 2417 151 2401 136 C 2377 114 2312 116 2272 140 C 2231 165 2190 248 2190 306 C 2190 336 2184 352 2166 369 C 2125 407 2114 489 2137 573 C 2143 595 2172 595 2193 573 C 2201 563 2215 530 2223 499 C 2231 468 2242 434 2248 424 C 2258 407 2259 409 2260 436 C 2260 492 2279 530 2307 530 C 2358 530 2468 562 2545 600 L 2625 639 L 2545 632 C 2501 628 2420 625 2365 625 C 2269 625 2263 627 2213 659 C 2098 731 2108 743 2414 920 C 2523 984 2626 1058 2617 1067 C 2614 1069 2599 1065 2583 1057 C 2568 1049 2494 1021 2420 995 C 2346 969 2248 931 2203 910 L 2120 871 L 2109 913 C 2102 938 2100 984 2104 1025 C 2107 1064 2113 1148 2116 1212 L 2123 1330 L 2149 1330 C 2190 1331 2250 1363 2319 1421 C 2417 1505 2470 1540 2499 1541 L 2525 1541 L 2501 1551 C 2465 1565 2424 1554 2347 1509 C 2256 1455 2180 1420 2153 1420 C 2121 1420 2103 1461 2089 1566 C 2068 1729 2086 1926 2137 2064 C 2170 2155 2275 2282 2349 2319 L 2390 2340 L 2462 2267 C 2502 2227 2569 2172 2610 2146 C 2708 2083 2730 2062 2730 2032 C 2730 2002 2752 2008 2764 2042 C 2787 2108 2730 2195 2610 2275 C 2571 2301 2540 2326 2540 2331 C 2540 2336 2546 2356 2554 2374 C 2564 2399 2582 2415 2619 2434 C 2676 2462 2753 2512 2787 2543 C 2815 2568 2882 2562 2972 2526 C 3006 2512 3036 2503 3038 2505 C 3044 2511 3014 2558 2983 2591 L 2959 2618 L 3031 2640 C 3114 2665 3205 2709 3268 2753 L 3310 2783 L 3411 2766 C 3503 2750 3607 2723 3654 2704 C 3697 2687 3660 2728 3579 2786 C 3473 2862 3470 2875 3530 2995 C 3553 3040 3577 3105 3583 3139 C 3589 3172 3598 3200 3602 3200 C 3606 3200 3625 3167 3644 3128 Z M 3766 1768 C 3768 1766 3756 1708 3740 1639 C 3692 1428 3633 1301 3548 1225 C 3486 1169 3437 1150 3348 1150 C 3278 1150 3270 1152 3259 1172 C 3233 1220 3245 1270 3302 1365 C 3357 1454 3358 1455 3417 1474 L 3478 1493 L 3521 1472 C 3545 1460 3565 1452 3566 1453 C 3573 1460 3538 1491 3492 1519 C 3432 1557 3426 1581 3464 1627 C 3477 1642 3494 1669 3503 1686 C 3512 1704 3532 1732 3547 1750 L 3574 1783 L 3668 1777 C 3720 1774 3764 1770 3766 1768 Z M 340 1732 C 394 1693 467 1601 472 1568 C 475 1544 469 1537 421 1513 C 391 1498 360 1475 352 1463 L 338 1440 L 373 1455 C 416 1473 484 1474 528 1459 C 551 1451 569 1432 592 1392 C 610 1360 635 1319 648 1300 C 667 1272 671 1256 667 1217 C 665 1190 657 1163 651 1157 C 644 1150 609 1145 562 1145 C 499 1146 476 1150 435 1172 C 309 1237 222 1392 164 1654 C 151 1714 140 1765 140 1768 C 140 1771 176 1770 221 1767 C 288 1762 308 1756 340 1732 Z M 3278 1050 C 3296 1050 3310 1044 3314 1034 C 3334 983 3305 885 3243 794 C 3193 721 3060 578 3006 538 C 2951 498 2932 501 2965 545 C 3006 597 3022 663 3015 745 L 3009 815 L 3055 845 C 3107 880 3171 961 3196 1025 C 3210 1063 3215 1068 3231 1060 C 3241 1054 3262 1050 3278 1050 Z M 729 1004 C 751 952 815 877 883 823 C 909 802 910 799 904 733 C 898 656 913 599 956 543 C 973 520 977 510 967 510 C 932 510 788 642 704 752 C 629 848 605 904 605 980 L 605 1045 L 645 1051 C 667 1054 690 1058 695 1058 C 701 1059 716 1035 729 1004 Z" id="path9862"></path>
<path d="M 735 3376 C 748 3357 750 3327 748 3229 C 745 3108 746 3103 775 3046 L 805 2986 L 811 3081 C 815 3132 822 3190 828 3208 C 854 3287 801 3400 738 3400 C 721 3400 721 3398 735 3376 Z" id="path5818"></path>
<path d="M 3144 3396 C 3073 3365 3046 3282 3074 3181 C 3083 3150 3090 3092 3091 3054 L 3092 2985 L 3123 3050 C 3152 3109 3154 3122 3151 3190 C 3143 3332 3145 3368 3165 3390 C 3186 3413 3185 3414 3144 3396 Z" id="path4447"></path>
<path d="M 338 2561 C 295 2551 258 2541 255 2538 C 252 2535 291 2529 342 2526 C 535 2511 557 2498 561 2397 L 564 2340 L 519 2311 C 495 2296 465 2272 453 2259 C 431 2235 398 2178 403 2173 C 405 2172 428 2182 455 2195 C 481 2209 520 2220 540 2220 C 575 2220 578 2217 594 2176 C 614 2123 656 2086 765 2021 C 868 1960 1021 1863 1038 1850 C 1059 1832 1052 1793 1024 1771 C 965 1725 822 1714 727 1748 C 597 1795 516 1860 466 1961 C 437 2018 430 2026 425 2009 C 415 1980 428 1903 452 1848 C 475 1795 565 1703 625 1672 C 684 1643 767 1620 819 1620 C 844 1620 897 1630 937 1641 C 1005 1661 1011 1662 1035 1646 C 1048 1637 1066 1620 1074 1607 C 1099 1570 1120 1470 1120 1389 C 1120 1314 1119 1311 1079 1264 C 1012 1183 986 1120 1000 1073 L 1008 1045 L 1009 1071 C 1011 1112 1050 1160 1133 1223 L 1211 1281 L 1243 1262 C 1261 1251 1331 1226 1400 1207 C 1556 1163 1628 1136 1675 1105 C 1705 1084 1709 1083 1700 1099 C 1672 1153 1533 1242 1393 1296 C 1275 1342 1251 1368 1211 1495 C 1150 1683 1178 1775 1316 1844 C 1410 1891 1468 1877 1589 1781 C 1624 1753 1655 1730 1657 1730 C 1667 1730 1613 1813 1573 1859 C 1513 1928 1436 1965 1369 1957 C 1312 1950 1216 1910 1183 1878 C 1153 1850 1113 1861 1046 1915 C 970 1977 946 2036 945 2157 C 945 2208 941 2245 937 2241 C 932 2236 917 2196 902 2152 L 875 2072 L 791 2128 C 698 2190 686 2209 675 2305 C 662 2421 648 2485 629 2516 C 590 2579 489 2595 338 2561 Z" id="path7552"></path>
<path d="M 3320 2562 C 3272 2535 3253 2491 3236 2360 C 3228 2297 3216 2232 3210 2215 C 3197 2180 3032 2061 3026 2082 C 2992 2189 2977 2230 2965 2246 C 2953 2263 2953 2259 2962 2216 C 2975 2155 2962 2064 2930 1998 C 2899 1930 2763 1831 2745 1861 C 2734 1879 2665 1918 2615 1935 C 2512 1969 2430 1950 2354 1873 C 2320 1838 2250 1739 2250 1725 C 2250 1722 2280 1744 2318 1773 C 2395 1835 2458 1870 2494 1870 C 2576 1870 2696 1786 2721 1713 C 2737 1664 2727 1572 2696 1473 C 2660 1362 2639 1340 2527 1295 C 2416 1251 2311 1191 2253 1137 C 2205 1093 2195 1068 2238 1098 C 2276 1125 2405 1174 2533 1210 C 2592 1227 2655 1249 2673 1260 L 2705 1279 L 2790 1216 C 2880 1150 2901 1124 2902 1071 C 2903 1030 2920 1052 2920 1095 C 2920 1138 2890 1195 2833 1267 C 2773 1340 2764 1375 2784 1468 C 2801 1551 2817 1585 2858 1623 C 2887 1651 2893 1652 2996 1654 C 3161 1658 3252 1694 3373 1800 C 3426 1847 3466 1923 3475 1995 L 3482 2045 L 3447 1975 C 3387 1852 3268 1765 3118 1734 C 2982 1706 2860 1747 2860 1820 C 2860 1843 2867 1853 2893 1866 C 2910 1875 2970 1913 3025 1950 C 3080 1987 3158 2036 3198 2059 C 3270 2101 3304 2138 3317 2190 C 3320 2204 3328 2218 3334 2222 C 3350 2233 3408 2221 3453 2198 C 3499 2175 3506 2179 3487 2217 C 3468 2253 3414 2303 3373 2324 C 3342 2339 3340 2344 3340 2393 C 3340 2495 3364 2511 3545 2529 C 3604 2535 3655 2542 3657 2544 C 3659 2546 3623 2555 3578 2564 C 3465 2586 3364 2585 3320 2562 Z" id="path8398"></path>
<animateTransform attributeName="transform" attributeType="auto" type="translate" values="0 0;0 50;0 0" calcMode="spline" keyTimes="0;0.5;1" keySplines=".25 0 .75 1;.25 0 .75 1" dur="3s" begin="0s" repeatCount="indefinite" additive="sum" accumulate="none" fill="freeze" id="animateTransform6732"></animateTransform></g>
</svg>