<svg xmlns="http://www.w3.org/2000/svg" xmlns:xlink="http://www.w3.org/1999/xlink" viewBox="0,0,256,256" width="64px" height="64px"><g fill="none" fill-rule="nonzero" stroke="none" stroke-width="1" stroke-linecap="butt" stroke-linejoin="miter" stroke-miterlimit="10" stroke-dasharray="" stroke-dashoffset="0" font-family="none" font-weight="none" font-size="none" text-anchor="none" style="mix-blend-mode: normal"><g transform="scale(4,4)"><path d="M44,28.5c-7.73199,0 -14,6.26801 -14,14c0,7.73199 6.26801,14 14,14c7.73199,0 14,-6.26801 14,-14c-0.00866,-7.7284 -6.2716,-13.99134 -14,-14zM50.707,49.207c-0.18748,0.18758 -0.44182,0.29297 -0.70703,0.29297c-0.26521,0 -0.51955,-0.10539 -0.70703,-0.29297l-6,-6c-0.18752,-0.18751 -0.29289,-0.44182 -0.29294,-0.707v-10c0,-0.55228 0.44772,-1 1,-1c0.55228,0 1,0.44772 1,1v9.58594l5.707,5.707c0.18758,0.18748 0.29297,0.44182 0.29297,0.70703c0,0.26521 -0.10539,0.51955 -0.29297,0.70703z" fill="#34d399"></path><path d="M44,23.5c-10.49341,0 -19,8.50659 -19,19c0,10.49341 8.50659,19 19,19c10.49341,0 19,-8.50659 19,-19c-0.01191,-10.48847 -8.51153,-18.98809 -19,-19zM44,58.5c-8.83656,0 -16,-7.16344 -16,-16c0,-8.83656 7.16344,-16 16,-16c8.83656,0 16,7.16344 16,16c-0.0101,8.83237 -7.16763,15.9899 -16,16z" fill="#34d399"></path><path d="M38.53564,15.03613c0.25517,-0.25211 0.3558,-0.62156 0.26373,-0.96825c-0.09207,-0.34669 -0.36273,-0.61754 -0.70936,-0.70983c-0.34663,-0.0923 -0.71614,0.00808 -0.96842,0.26308c-1.18717,1.13379 -3.05599,1.13379 -4.24316,0c-0.39138,-0.3867 -1.0216,-0.3847 -1.41052,0.00448c-0.38892,0.38918 -0.3905,1.01939 -0.00354,1.41052c0.93757,0.93797 2.20943,1.46495 3.53564,1.46495c1.32621,0 2.59807,-0.52698 3.53564,-1.46495z" fill="#ffffff"></path><path d="M50,32.5h-5v-4c-0.00596,-3.885 -2.26061,-7.41524 -5.78284,-9.0545c2.6543,-1.41078 4.43082,-4.05171 4.73706,-7.042c2.5282,-0.49045 4.26972,-2.82185 4.02272,-5.38532c-0.24699,-2.56346 -2.40161,-4.51947 -4.97694,-4.51818c-1.24115,-0.00078 -2.43679,0.46733 -3.34747,1.31061c-2.80011,-1.69742 -6.30159,-1.73846 -9.14072,-0.10714c-2.83912,1.63132 -4.56698,4.67707 -4.51062,7.95101c0.05637,3.27394 1.88805,6.2584 4.78164,7.79103c-3.52223,1.63926 -5.77688,5.1695 -5.78284,9.0545v4h-5.52515c1.60107,-4.52158 -0.62737,-9.50403 -5.06508,-11.32471c-4.43771,-1.82069 -9.52335,0.16096 -11.55928,4.50413c-2.03593,4.34317 -0.30584,9.5198 3.93236,11.76608c-3.52223,1.63926 -5.77689,5.1695 -5.78285,9.0545v5c0,0.55228 0.44772,1 1,1h48c0.55228,0 1,-0.44772 1,-1v-18c0,-0.55228 -0.44772,-1 -1,-1zM43,4.5c1.47631,-0.00425 2.73496,1.06915 2.96385,2.52761c0.22888,1.45846 -0.64046,2.86582 -2.0471,3.314c-0.25907,-2.00317 -1.18624,-3.86041 -2.63159,-5.27136c0.49717,-0.36617 1.09739,-0.56577 1.71484,-0.57025zM41.9057,10.4057c-2.98945,-0.47773 -5.33367,-2.82195 -5.8114,-5.8114c2.98945,0.47773 5.33367,2.82195 5.8114,5.8114zM33.9057,4.5943c-0.47773,2.98945 -2.82195,5.33367 -5.8114,5.8114c0.47773,-2.98945 2.82195,-5.33367 5.8114,-5.8114zM28.06921,12.43042c2.9678,-0.35952 5.56412,-2.16747 6.93079,-4.82629c1.36667,2.65882 3.96299,4.46677 6.93079,4.82629c-0.46236,3.4744 -3.42576,6.06957 -6.93079,6.06957c-3.50503,0 -6.46843,-2.59517 -6.93079,-6.06957zM27,28.5c0,-4.41828 3.58172,-8 8,-8c4.41828,0 8,3.58172 8,8v4h-16zM40,34.5v5c-0.00072,0.55199 -0.44801,0.99928 -1,1h-8c-0.55199,-0.00072 -0.99928,-0.44801 -1,-1v-5zM4.13129,30.83588c-0.6453,-3.29818 1.14676,-6.58897 4.26741,-7.83634c3.12065,-1.24737 6.6873,-0.09851 8.49321,2.73575c-0.42906,2.79084 -2.30157,5.1469 -4.9235,6.19492c-2.62193,1.04802 -5.60255,0.63182 -7.83712,-1.09433zM5.54929,33.88171c4.80417,1.77503 10.17199,-0.37629 12.42053,-4.9779c0.01672,0.197 0.03021,0.395 0.03021,0.59619c0.00239,2.9699 -1.87102,5.61749 -4.67251,6.6034c-2.80148,0.98591 -5.92013,0.09513 -7.77826,-2.22169zM19,50.5h-16v-4c0,-4.41828 3.58172,-8 8,-8c4.41828,0 8,3.58172 8,8zM49,50.5h-28v-4h28zM49,44.5h-28.20154c-0.6421,-3.1009 -2.71128,-5.71626 -5.5813,-7.0545c1.31213,-0.69949 2.43202,-1.71105 3.26093,-2.9455h9.52191v5c0.00181,1.6561 1.3439,2.99819 3,3h8c1.6561,-0.00181 2.99819,-1.3439 3,-3v-5h7z" fill="#ffffff"></path></g></g></svg>