<svg xmlns="http://www.w3.org/2000/svg" xmlns:xlink="http://www.w3.org/1999/xlink" viewBox="0,0,256,256" width="64px" height="64px"><g fill="none" fill-rule="nonzero" stroke="none" stroke-width="1" stroke-linecap="butt" stroke-linejoin="miter" stroke-miterlimit="10" stroke-dasharray="" stroke-dashoffset="0" font-family="none" font-weight="none" font-size="none" text-anchor="none" style="mix-blend-mode: normal"><g transform="scale(4,4)"><path d="M33.38623,44l5.71588,2.63794l4.27338,-3.4187c0.43135,-0.34242 1.05838,-0.27152 1.40238,0.15856c0.344,0.43008 0.27542,1.05737 -0.15338,1.40296l-3.49249,2.79407l2.868,1.32361l10.61377,-4.89844l-10.61377,-4.89844z" fill="#34d399"></path><path d="M60,32h-18.58594l-5.707,-5.707c-0.28615,-0.28549 -0.71598,-0.37074 -1.08943,-0.21607c-0.37345,0.15467 -0.61713,0.51886 -0.61763,0.92307v5h-6c-1.6561,0.00181 -2.99819,1.3439 -3,3v24c0.00181,1.6561 1.3439,2.99819 3,3h32c1.6561,-0.00181 2.99819,-1.3439 3,-3v-24c-0.00181,-1.6561 -1.3439,-2.99819 -3,-3zM57.419,44.9082l-3.419,1.57801v7.51379c0.00001,0.31468 -0.14815,0.611 -0.3999,0.7998c-5.68887,4.26693 -13.51133,4.26693 -19.2002,0c-0.25175,-0.1888 -0.39991,-0.48512 -0.3999,-0.7998v-7.51379l-3.41895,-1.578c-0.35367,-0.16398 -0.57998,-0.51836 -0.57998,-0.9082c0,-0.38984 0.22631,-0.74422 0.57998,-0.9082l13,-6c0.26596,-0.12207 0.57194,-0.12207 0.8379,0l13,6c0.35367,0.16397 0.57999,0.51834 0.58,0.90818c0.00001,0.38983 -0.22629,0.74422 -0.57995,0.90821z" fill="#34d399"></path><path d="M43.58105,50.9082l-3.58105,-1.65277v2.74457c0,0.55228 -0.44772,1 -1,1c-0.55228,0 -1,-0.44772 -1,-1v-3.66766l-2,-0.9231v6.07953c4.80781,3.34831 11.19219,3.34831 16,0v-6.07953l-7.581,3.499c-0.26591,0.1224 -0.57205,0.12238 -0.83795,-0.00004z" fill="#34d399"></path><path d="M51,5c-0.00181,-1.6561 -1.3439,-2.99819 -3,-3h-22c-13.80712,-0.00015 -25.00012,11.19261 -25.00027,24.99973c-0.00015,13.80712 11.19261,25.00012 24.99973,25.00028h0.0011c7.69659,0.00943 14.96741,-3.53119 19.70603,-9.59609c4.73862,-6.0649 6.41541,-13.97624 4.54458,-21.442c0.47989,-0.54114 0.74612,-1.23864 0.74884,-1.96191zM33.93939,24.94226c-0.47489,4.02494 -3.88653,7.05772 -7.93939,7.05772c-4.05286,0 -7.4645,-3.03278 -7.93939,-7.05772c3.4381,-0.37393 6.4398,-2.49572 7.93939,-5.61206c1.49959,3.11634 4.50129,5.23813 7.93939,5.61206zM27.082,16.082c3.55261,0.49029 6.34571,3.28339 6.836,6.836c-3.55261,-0.49029 -6.34571,-3.28339 -6.836,-6.836zM29.168,43.55472l1.50146,2.25244l-3.66946,3.05795v-3.68847l3.679,-10.11719c0.49726,0.23112 0.97656,0.49908 1.43389,0.80163l0.76947,5.38746l-3.125,0.78125c-0.31529,0.07917 -0.57248,0.30657 -0.68967,0.60979c-0.11719,0.30322 -0.07979,0.64448 0.10031,0.91511zM22.24271,42.02982l-3.125,-0.78125l0.76947,-5.38746c0.45733,-0.30255 0.93663,-0.57051 1.43389,-0.80163l3.67893,10.11716v3.68847l-3.66943,-3.058l1.50143,-2.25242c0.18013,-0.27062 0.21757,-0.61189 0.10038,-0.91512c-0.11719,-0.30323 -0.37439,-0.53063 -0.6897,-0.60978zM26,42.07373l-2.7995,-7.699c1.83289,-0.49968 3.76611,-0.49968 5.599,0zM17.781,18.318c-0.50167,-0.66919 -0.77542,-1.48167 -0.781,-2.318c-0.00425,-1.83495 1.24333,-3.43631 3.02359,-3.88099c1.78026,-0.44468 3.63431,0.38195 4.49341,2.00337c-2.72779,0.40993 -5.16522,1.92812 -6.736,4.19562zM24.918,16.082c-0.49029,3.55261 -3.28339,6.34571 -6.836,6.836c0.49029,-3.55261 3.28339,-6.34571 6.836,-6.836zM13,45v0.96021c-8.19145,-5.60883 -11.85655,-15.84271 -9.08822,-25.3766c2.76833,-9.5339 11.34449,-16.21332 21.26602,-16.56274c-0.11406,0.31401 -0.17418,0.64506 -0.1778,0.97913v6.55646c-2.40118,-2.18541 -6.10786,-2.05422 -8.34854,0.29547c-2.24068,2.34969 -2.19576,6.05842 0.10116,8.35315c-1.97079,4.78165 0.03982,10.27652 4.63129,12.657c-5.04012,1.91741 -8.37492,6.74541 -8.38391,12.13792zM15,47.19348v-2.19348c-0.00155,-2.58009 0.90831,-5.0778 2.569,-7.05237l-0.55878,3.91077c-0.07264,0.50728 0.24996,0.98737 0.74707,1.11181l2.62354,0.65577l-1.21283,1.81933c-0.28358,0.42514 -0.2008,0.99572 0.19189,1.32276l3.63511,3.02923c-2.80324,-0.36539 -5.51422,-1.24831 -7.995,-2.60382zM37,47.19348c-2.48078,1.35551 -5.19176,2.23843 -7.995,2.60382l3.63514,-3.02923c0.39269,-0.32704 0.47547,-0.89762 0.19189,-1.32276l-1.21289,-1.81931l2.62354,-0.65577c0.49711,-0.12444 0.81971,-0.60453 0.74707,-1.11181l-0.55875,-3.91079c1.66069,1.97457 2.57055,4.47228 2.569,7.05237zM39,45.96021v-0.96021c-0.00899,-5.39252 -3.34378,-10.22052 -8.38391,-12.13794c3.95899,-2.0574 6.074,-6.49039 5.18237,-10.86206h2.20154v5c0.00055,0.40417 0.24423,0.76831 0.61764,0.92296c0.37341,0.15466 0.8032,0.06945 1.08936,-0.21596l5.70706,-5.707h2.58594c0.14529,-0.00395 0.29009,-0.01858 0.43323,-0.04376c2.07959,9.17901 -1.66073,18.6967 -9.43323,24.00397zM49,19c-0.00072,0.55199 -0.44801,0.99928 -1,1h-3c-0.26519,0.00007 -0.5195,0.10546 -0.707,0.293l-4.293,4.29294v-3.58594c0,-0.55228 -0.44772,-1 -1,-1h-3.8407c-1.44852,-3.3089 -4.56596,-5.58198 -8.1593,-5.94934v-9.05066c0.00072,-0.55199 0.44801,-0.99928 1,-1h20c0.55199,0.00072 0.99928,0.44801 1,1z" fill="#ffffff"></path><path d="M44,8h-12c-0.55228,0 -1,0.44772 -1,1c0,0.55228 0.44772,1 1,1h12c0.55228,0 1,-0.44772 1,-1c0,-0.55228 -0.44772,-1 -1,-1z" fill="#ffffff"></path><path d="M44,14h-9c-0.55228,0 -1,0.44772 -1,1c0,0.55228 0.44772,1 1,1h9c0.55228,0 1,-0.44772 1,-1c0,-0.55228 -0.44772,-1 -1,-1z" fill="#ffffff"></path><path d="M22.79932,26.3999c-0.33217,-0.43998 -0.95779,-0.52807 -1.39853,-0.19691c-0.44074,0.33116 -0.53026,0.95658 -0.20011,1.39808c1.13259,1.51121 2.9108,2.4007 4.79932,2.4007c1.88852,0 3.66673,-0.88949 4.79932,-2.4007c0.33015,-0.4415 0.24063,-1.06692 -0.20011,-1.39808c-0.44074,-0.33116 -1.06637,-0.24307 -1.39853,0.19691c-0.75524,1.00796 -1.94117,1.60126 -3.20068,1.60126c-1.25951,0 -2.44544,-0.5933 -3.20068,-1.60126z" fill="#ffffff"></path></g></g></svg>