<svg xmlns="http://www.w3.org/2000/svg" xmlns:xlink="http://www.w3.org/1999/xlink" viewBox="0,0,256,256" width="32px" height="32px" fill-rule="nonzero"><g fill="#ffffff" fill-rule="nonzero" stroke="none" stroke-width="1" stroke-linecap="butt" stroke-linejoin="miter" stroke-miterlimit="10" stroke-dasharray="" stroke-dashoffset="0" font-family="none" font-weight="none" font-size="none" text-anchor="none" style="mix-blend-mode: normal"><g transform="scale(8,8)"><path d="M16,4c-1.00781,0 -1.86328,0.44531 -2.5625,1.0625c-0.14844,-0.01953 -0.27734,-0.0625 -0.4375,-0.0625c-1.46094,0 -2.61719,0.88672 -3.3125,2.0625c-1.9375,0.16016 -3.46484,1.6875 -3.625,3.625c-1.17578,0.69531 -2.0625,1.85156 -2.0625,3.3125c0,0.74609 0.26563,1.40625 0.625,2c-0.35937,0.59375 -0.625,1.25391 -0.625,2c0,2.08594 1.64063,3.76953 3.6875,3.9375c0.69531,1.17578 1.85156,2.0625 3.3125,2.0625c0.74219,0 1.41406,-0.24609 2,-0.625v0.625c0,0.52734 -0.10937,0.67969 -0.3125,0.875c-0.20312,0.19531 -0.56641,0.38672 -1.03125,0.5625c-0.46484,0.17578 -1.01953,0.34766 -1.5625,0.6875c-0.54297,0.33984 -1.09375,1.04297 -1.09375,1.875h2c0,-0.16016 -0.05078,-0.05859 0.15625,-0.1875c0.20703,-0.12891 0.65234,-0.29687 1.1875,-0.5c0.53516,-0.20312 1.17188,-0.44141 1.71875,-0.96875c0.54688,-0.52734 0.9375,-1.37109 0.9375,-2.34375v-5h-2v1.65625l-0.28125,0.4375c-0.34766,0.52344 -1.01562,0.90625 -1.71875,0.90625c-0.87891,0 -1.60156,-0.55859 -1.875,-1.34375l-0.25,-0.71875l-0.75,0.03125c-0.17187,0.01172 -0.21875,0.03125 -0.125,0.03125c-1.11719,0 -2,-0.88281 -2,-2c0,-0.51172 0.20313,-0.98047 0.53125,-1.34375l0.59375,-0.65625l-0.59375,-0.65625c-0.32812,-0.36328 -0.53125,-0.83203 -0.53125,-1.34375c0,-0.87891 0.55859,-1.60156 1.34375,-1.875l0.71875,-0.25l-0.03125,-0.75c-0.01172,-0.17187 -0.03125,-0.21875 -0.03125,-0.125c0,-1.11719 0.88281,-2 2,-2c-0.09375,0 -0.04687,0.01953 0.125,0.03125l0.75,0.03125l0.25,-0.71875c0.27344,-0.78516 0.99609,-1.34375 1.875,-1.34375c0.14063,0 0.29688,0.01953 0.46875,0.0625l0.59375,0.15625l0.40625,-0.5c0.375,-0.44922 0.91406,-0.71875 1.53125,-0.71875c0.61719,0 1.15625,0.26953 1.53125,0.71875l0.40625,0.5l0.59375,-0.15625c0.17188,-0.04297 0.32813,-0.0625 0.46875,-0.0625c0.87891,0 1.60156,0.55859 1.875,1.34375l0.25,0.71875l0.75,-0.03125c0.17188,-0.01172 0.21875,-0.03125 0.125,-0.03125c1.11719,0 2,0.88281 2,2c0,-0.09375 -0.01953,-0.04687 -0.03125,0.125l-0.03125,0.75l0.71875,0.25c0.78516,0.27344 1.34375,0.99609 1.34375,1.875c0,0.51172 -0.20312,0.98047 -0.53125,1.34375l-0.59375,0.65625l0.59375,0.65625c0.32813,0.36328 0.53125,0.83203 0.53125,1.34375c0,1.11719 -0.88281,2 -2,2c0.09375,0 0.04688,-0.01953 -0.125,-0.03125l-0.75,-0.03125l-0.25,0.71875c-0.27344,0.78516 -0.99609,1.34375 -1.875,1.34375c-0.70312,0 -1.41797,-0.40234 -1.75,-0.90625l-0.25,-0.375v-1.71875h-2v5c0,0.97266 0.39063,1.81641 0.9375,2.34375c0.54688,0.52734 1.18359,0.76563 1.71875,0.96875c0.53516,0.20313 0.98047,0.37109 1.1875,0.5c0.20703,0.12891 0.15625,0.02734 0.15625,0.1875h2c0,-0.83203 -0.55078,-1.53516 -1.09375,-1.875c-0.54297,-0.33984 -1.09766,-0.51172 -1.5625,-0.6875c-0.46484,-0.17578 -0.82812,-0.36719 -1.03125,-0.5625c-0.20312,-0.19531 -0.3125,-0.34766 -0.3125,-0.875v-0.625c0.59375,0.37891 1.25,0.625 2,0.625c1.46094,0 2.61719,-0.88672 3.3125,-2.0625c2.04688,-0.16797 3.6875,-1.85156 3.6875,-3.9375c0,-0.74609 -0.26562,-1.40625 -0.625,-2c0.35938,-0.59375 0.625,-1.25391 0.625,-2c0,-1.46094 -0.88672,-2.61719 -2.0625,-3.3125c-0.16016,-1.9375 -1.6875,-3.46484 -3.625,-3.625c-0.69531,-1.17578 -1.85156,-2.0625 -3.3125,-2.0625c-0.16016,0 -0.28906,0.04297 -0.4375,0.0625c-0.69922,-0.61719 -1.55469,-1.0625 -2.5625,-1.0625z"></path></g></g></svg>