<svg xmlns="http://www.w3.org/2000/svg" xmlns:xlink="http://www.w3.org/1999/xlink" viewBox="0,0,256,256" width="64px" height="64px"><g fill="#ffffff" fill-rule="nonzero" stroke="none" stroke-width="1" stroke-linecap="butt" stroke-linejoin="miter" stroke-miterlimit="10" stroke-dasharray="" stroke-dashoffset="0" font-family="none" font-weight="none" font-size="none" text-anchor="none" style="mix-blend-mode: normal"><g transform="scale(2,2)"><path d="M99,36c-7.5,0 -14.5,2.9 -19.8,8.2l-34.6,35.4c-8.6,8.6 -22.5,8.6 -31.1,0c-4.2,-4.2 -6.5,-9.7 -6.5,-15.6c0,-5.9 2.3,-11.4 6.4,-15.6c4.1,-4.2 9.7,-6.4 15.6,-6.4h22.8l-9.9,9.9c-1.2,1.2 -1.2,3.1 0,4.2c0.6,0.6 1.4,0.9 2.1,0.9c0.7,0 1.5,-0.3 2.1,-0.9l15,-15c1.2,-1.2 1.2,-3.1 0,-4.2l-15,-15c-1.2,-1.2 -3.1,-1.2 -4.2,0c-1.2,1.2 -1.2,3.1 0,4.2l9.9,9.9h-22.8c-7.5,0 -14.5,2.9 -19.8,8.2c-5.3,5.3 -8.2,12.3 -8.2,19.8c0,7.5 2.9,14.5 8.2,19.8c10.9,10.9 28.7,10.9 39.6,0l34.6,-35.3c4.2,-4.2 9.7,-6.5 15.6,-6.5c5.9,0 11.4,2.3 15.6,6.4c4.2,4.1 6.4,9.7 6.4,15.6c0,5.9 -2.3,11.4 -6.4,15.6c-4.1,4.2 -9.7,6.4 -15.6,6.4h-22.8l9.9,-9.9c1.2,-1.2 1.2,-3.1 0,-4.2c-1.2,-1.2 -3.1,-1.2 -4.2,0l-15,15c-1.2,1.2 -1.2,3.1 0,4.2l15,15c0.6,0.6 1.4,0.9 2.1,0.9c0.7,0 1.5,-0.3 2.1,-0.9c1.2,-1.2 1.2,-3.1 0,-4.2l-9.9,-9.9h22.8c7.5,0 14.5,-2.9 19.8,-8.2c5.3,-5.3 8.2,-12.3 8.2,-19.8c0,-7.5 -2.9,-14.5 -8.2,-19.8c-5.3,-5.3 -12.3,-8.2 -19.8,-8.2z"></path></g></g></svg>