<svg xmlns="http://www.w3.org/2000/svg" xmlns:xlink="http://www.w3.org/1999/xlink" viewBox="0,0,256,256" width="80px" height="80px"><g fill="#ffffff" fill-rule="nonzero" stroke="none" stroke-width="1" stroke-linecap="butt" stroke-linejoin="miter" stroke-miterlimit="10" stroke-dasharray="" stroke-dashoffset="0" font-family="none" font-weight="none" font-size="none" text-anchor="none" style="mix-blend-mode: normal"><g transform="scale(3.2,3.2)"><path d="M5,10v61h70v-2h-6.56055c0.3469,-0.59163 0.56055,-1.26931 0.56055,-2v-12.17969l0.98047,-0.19727c2.33111,-0.46622 4.01953,-2.5248 4.01953,-4.90234v-14.7207c0,-4.40644 -3.59356,-8 -8,-8h-8c-4.40644,0 -8,3.59356 -8,8v14.7207c0,2.37755 1.68842,4.43612 4.01953,4.90234l0.98047,0.19727v12.17969c0,0.73069 0.21365,1.40837 0.56055,2h-9.56055v-30h-10v30h-3v-20h-10v20h-3v-13h-10v13h-3v-59zM62,11c-3.85415,0 -7,3.14585 -7,7c0,3.85415 3.14585,7 7,7c3.85415,0 7,-3.14585 7,-7c0,-3.85415 -3.14585,-7 -7,-7zM62,13c2.77327,0 5,2.22673 5,5c0,2.77327 -2.22673,5 -5,5c-2.77327,0 -5,-2.22673 -5,-5c0,-2.77327 2.22673,-5 5,-5zM58,29h8c3.32556,0 6,2.67444 6,6v14.7207c0,1.43645 -1.00322,2.65963 -2.41211,2.94141l-0.61133,0.12305c-0.10086,-0.4585 -0.5071,-0.78512 -0.97656,-0.78516c-0.55228,0 -1,0.44772 -1,1c0.00002,0.05894 0.00525,0.11776 0.01563,0.17578l-0.01562,0.00391v13.82031c0,1.11667 -0.88333,2 -2,2h-6c-1.11667,0 -2,-0.88333 -2,-2v-13.82031l-0.01562,-0.00391c0.01038,-0.05802 0.01561,-0.11684 0.01563,-0.17578c0,-0.55228 -0.44772,-1 -1,-1c-0.46873,0.00096 -0.8739,0.32737 -0.97461,0.78516l-0.61328,-0.12305c-1.40889,-0.28178 -2.41211,-1.50495 -2.41211,-2.94141v-14.7207c0,-3.32556 2.67444,-6 6,-6zM56,36c-0.55228,0 -1,0.44772 -1,1c0,0.55228 0.44772,1 1,1c0.55228,0 1,-0.44772 1,-1c0,-0.55228 -0.44772,-1 -1,-1zM68,36c-0.55228,0 -1,0.44772 -1,1c0,0.55228 0.44772,1 1,1c0.55228,0 1,-0.44772 1,-1c0,-0.55228 -0.44772,-1 -1,-1zM56,40c-0.55228,0 -1,0.44772 -1,1c0,0.55228 0.44772,1 1,1c0.55228,0 1,-0.44772 1,-1c0,-0.55228 -0.44772,-1 -1,-1zM68,40c-0.55228,0 -1,0.44772 -1,1c0,0.55228 0.44772,1 1,1c0.55228,0 1,-0.44772 1,-1c0,-0.55228 -0.44772,-1 -1,-1zM38,41h6v4c-0.55228,0 -1,0.44772 -1,1c0,0.55228 0.44772,1 1,1v4c-0.55228,0 -1,0.44772 -1,1c0,0.55228 0.44772,1 1,1v4c-0.55228,0 -1,0.44772 -1,1c0,0.55228 0.44772,1 1,1v4c-0.55228,0 -1,0.44772 -1,1c0,0.55228 0.44772,1 1,1v4h-6v-4c0.55228,0 1,-0.44772 1,-1c0,-0.55228 -0.44772,-1 -1,-1v-4c0.55228,0 1,-0.44772 1,-1c0,-0.55228 -0.44772,-1 -1,-1v-4c0.55228,0 1,-0.44772 1,-1c0,-0.55228 -0.44772,-1 -1,-1v-4c0.55228,0 1,-0.44772 1,-1c0,-0.55228 -0.44772,-1 -1,-1zM41,42c-0.55228,0 -1,0.44772 -1,1c0,0.55228 0.44772,1 1,1c0.55228,0 1,-0.44772 1,-1c0,-0.55228 -0.44772,-1 -1,-1zM56,44c-0.55228,0 -1,0.44772 -1,1c0,0.55228 0.44772,1 1,1c0.55228,0 1,-0.44772 1,-1c0,-0.55228 -0.44772,-1 -1,-1zM68,44c-0.55228,0 -1,0.44772 -1,1c0,0.55228 0.44772,1 1,1c0.55228,0 1,-0.44772 1,-1c0,-0.55228 -0.44772,-1 -1,-1zM41,48c-0.55228,0 -1,0.44772 -1,1c0,0.55228 0.44772,1 1,1c0.55228,0 1,-0.44772 1,-1c0,-0.55228 -0.44772,-1 -1,-1zM56,48c-0.55228,0 -1,0.44772 -1,1c0,0.55228 0.44772,1 1,1c0.55228,0 1,-0.44772 1,-1c0,-0.55228 -0.44772,-1 -1,-1zM68,48c-0.55228,0 -1,0.44772 -1,1c0,0.55228 0.44772,1 1,1c0.55228,0 1,-0.44772 1,-1c0,-0.55228 -0.44772,-1 -1,-1zM25,51h6v18h-6zM41,54c-0.55228,0 -1,0.44772 -1,1c0,0.55228 0.44772,1 1,1c0.55228,0 1,-0.44772 1,-1c0,-0.55228 -0.44772,-1 -1,-1zM13,58h4c0,0.55228 0.44772,1 1,1v4c-0.55228,0 -1,0.44772 -1,1c0,0.55228 0.44772,1 1,1v4h-6v-4c0.55228,0 1,-0.44772 1,-1c0,-0.55228 -0.44772,-1 -1,-1v-4c0.55228,0 1,-0.44772 1,-1zM15,60c-0.55228,0 -1,0.44772 -1,1c0,0.55228 0.44772,1 1,1c0.55228,0 1,-0.44772 1,-1c0,-0.55228 -0.44772,-1 -1,-1zM41,60c-0.55228,0 -1,0.44772 -1,1c0,0.55228 0.44772,1 1,1c0.55228,0 1,-0.44772 1,-1c0,-0.55228 -0.44772,-1 -1,-1zM15,66c-0.55228,0 -1,0.44772 -1,1c0,0.55228 0.44772,1 1,1c0.55228,0 1,-0.44772 1,-1c0,-0.55228 -0.44772,-1 -1,-1zM41,66c-0.55228,0 -1,0.44772 -1,1c0,0.55228 0.44772,1 1,1c0.55228,0 1,-0.44772 1,-1c0,-0.55228 -0.44772,-1 -1,-1z"></path></g></g></svg>